{
	"asset":{
		"generator":"Khronos glTF Blender I/O v4.0.44",
		"version":"2.0"
	},
	"scene":0,
	"scenes":[
		{
			"name":"Scene",
			"nodes":[
				20
			]
		}
	],
	"nodes":[
		{
			"mesh":0,
			"name":"defaultMaterial.006"
		},
		{
			"children":[
				0
			],
			"name":"AV_back",
			"rotation":[
				0,
				1,
				0,
				4.1858277028738605e-24
			],
			"translation":[
				11.056853294372559,
				-26.295045852661133,
				-18.645549774169922
			]
		},
		{
			"mesh":1,
			"name":"defaultMaterial.005"
		},
		{
			"children":[
				2
			],
			"name":"AV_front",
			"translation":[
				0,
				-26.836109161376953,
				0
			]
		},
		{
			"mesh":2,
			"name":"defaultMaterial.007",
			"translation":[
				0,
				7.957441994221881e-06,
				-1.52587890625e-05
			]
		},
		{
			"children":[
				4
			],
			"name":"Coax_connector",
			"rotation":[
				-0.5,
				0.5,
				-0.5,
				0.5
			],
			"scale":[
				0.17348100244998932,
				0.158952996134758,
				0.17348100244998932
			],
			"translation":[
				26.908334732055664,
				-17.616117477416992,
				-17.224727630615234
			]
		},
		{
			"mesh":3,
			"name":"defaultMaterial.002"
		},
		{
			"children":[
				6
			],
			"name":"Front_buttons"
		},
		{
			"mesh":4,
			"name":"defaultMaterial.001"
		},
		{
			"children":[
				8
			],
			"name":"Front_section"
		},
		{
			"mesh":5,
			"name":"defaultMaterial.008",
			"translation":[
				0,
				-3.814697265625e-06,
				0
			]
		},
		{
			"children":[
				10
			],
			"name":"Logo",
			"scale":[
				0.10999999940395355,
				0.11000000685453415,
				0.11000000685453415
			],
			"translation":[
				0.0032790000550448895,
				-19.834896087646484,
				0.8517979979515076
			]
		},
		{
			"mesh":6,
			"name":"defaultMaterial"
		},
		{
			"children":[
				12
			],
			"name":"rear_section",
			"scale":[
				0.9900000691413879,
				0.9900000095367432,
				1
			],
			"translation":[
				0.00041599999531172216,
				-0.04218101501464844,
				0
			]
		},
		{
			"mesh":7,
			"name":"defaultMaterial.003"
		},
		{
			"children":[
				14
			],
			"name":"Screen",
			"scale":[
				398.21588134765625,
				398.2158508300781,
				398.2158508300781
			],
			"translation":[
				0,
				0,
				-166.61721801757812
			]
		},
		{
			"mesh":8,
			"name":"defaultMaterial.004"
		},
		{
			"children":[
				16
			],
			"name":"Screw",
			"rotation":[
				0,
				0,
				-0.2935199439525604,
				0.9559529423713684
			],
			"scale":[
				0.3782638609409332,
				0.37826380133628845,
				0.22089500725269318
			],
			"translation":[
				3.169335126876831,
				-20.04554557800293,
				-18.300859451293945
			]
		},
		{
			"children":[
				1,
				3,
				5,
				7,
				9,
				11,
				13,
				15,
				17
			],
			"name":"tv",
			"translation":[
				0,
				26.83610725402832,
				0
			]
		},
		{
			"children":[
				18
			],
			"name":"Collada visual scene group",
			"rotation":[
				0.70710688829422,
				0,
				0,
				0.7071066498756409
			]
		},
		{
			"children":[
				19
			],
			"name":"Sketchfab_model",
			"rotation":[
				0,
				-0.7071068286895752,
				-0.7071068286895752,
				1.5700924318127872e-16
			],
			"scale":[
				0.010000002570450306,
				0.010000000707805157,
				0.010000000707805157
			]
		}
	],
	"materials":[
		{
			"name":"TVfront",
			"normalTexture":{
				"index":0
			},
			"occlusionTexture":{
				"index":1
			},
			"pbrMetallicRoughness":{
				"baseColorTexture":{
					"index":2
				},
				"metallicRoughnessTexture":{
					"index":1
				}
			}
		},
		{
			"name":"TVback",
			"normalTexture":{
				"index":3
			},
			"occlusionTexture":{
				"index":4
			},
			"pbrMetallicRoughness":{
				"baseColorTexture":{
					"index":5
				},
				"metallicRoughnessTexture":{
					"index":4
				}
			}
		},
		{
			"name":"TVScreen",
			"normalTexture":{
				"index":6
			},
			"occlusionTexture":{
				"index":7
			},
			"pbrMetallicRoughness":{
				"baseColorTexture":{
					"index":8
				},
				"metallicRoughnessTexture":{
					"index":7
				}
			}
		}
	],
	"meshes":[
		{
			"name":"defaultMaterial.006",
			"primitives":[
				{
					"attributes":{
						"POSITION":0,
						"NORMAL":1,
						"TEXCOORD_0":2
					},
					"indices":3,
					"material":0
				}
			]
		},
		{
			"name":"defaultMaterial.005",
			"primitives":[
				{
					"attributes":{
						"POSITION":4,
						"NORMAL":5,
						"TEXCOORD_0":6
					},
					"indices":3,
					"material":0
				}
			]
		},
		{
			"name":"defaultMaterial.007",
			"primitives":[
				{
					"attributes":{
						"POSITION":7,
						"NORMAL":8,
						"TEXCOORD_0":9
					},
					"indices":10,
					"material":0
				}
			]
		},
		{
			"name":"defaultMaterial.002",
			"primitives":[
				{
					"attributes":{
						"POSITION":11,
						"NORMAL":12,
						"TEXCOORD_0":13
					},
					"indices":14,
					"material":0
				}
			]
		},
		{
			"name":"defaultMaterial.001",
			"primitives":[
				{
					"attributes":{
						"POSITION":15,
						"NORMAL":16,
						"TEXCOORD_0":17
					},
					"indices":18,
					"material":0
				}
			]
		},
		{
			"name":"defaultMaterial.008",
			"primitives":[
				{
					"attributes":{
						"POSITION":19,
						"NORMAL":20,
						"TEXCOORD_0":21
					},
					"indices":22,
					"material":0
				}
			]
		},
		{
			"name":"defaultMaterial",
			"primitives":[
				{
					"attributes":{
						"POSITION":23,
						"NORMAL":24,
						"TEXCOORD_0":25
					},
					"indices":26,
					"material":1
				}
			]
		},
		{
			"name":"defaultMaterial.003",
			"primitives":[
				{
					"attributes":{
						"POSITION":27,
						"NORMAL":28,
						"TEXCOORD_0":29
					},
					"indices":30,
					"material":2
				}
			]
		},
		{
			"name":"defaultMaterial.004",
			"primitives":[
				{
					"attributes":{
						"POSITION":31,
						"NORMAL":32,
						"TEXCOORD_0":33
					},
					"indices":34,
					"material":0
				}
			]
		}
	],
	"textures":[
		{
			"sampler":0,
			"source":0
		},
		{
			"sampler":0,
			"source":1
		},
		{
			"sampler":0,
			"source":2
		},
		{
			"sampler":0,
			"source":3
		},
		{
			"sampler":0,
			"source":4
		},
		{
			"sampler":0,
			"source":5
		},
		{
			"sampler":0,
			"source":6
		},
		{
			"sampler":0,
			"source":7
		},
		{
			"sampler":0,
			"source":8
		}
	],
	"images":[
		{
			"mimeType":"image/png",
			"name":"TVfront_normal",
			"uri":"textures/TVfront_normal.png"
		},
		{
			"mimeType":"image/png",
			"name":"TVfront_metallicRoughness",
			"uri":"textures/TVfront_metallicRoughness.png"
		},
		{
			"mimeType":"image/jpeg",
			"name":"TVfront_baseColor",
			"uri":"textures/TVfront_baseColor.jpg"
		},
		{
			"mimeType":"image/png",
			"name":"TVback_normal",
			"uri":"textures/TVback_normal.png"
		},
		{
			"mimeType":"image/png",
			"name":"TVback_metallicRoughness",
			"uri":"textures/TVback_metallicRoughness.png"
		},
		{
			"mimeType":"image/jpeg",
			"name":"TVback_baseColor",
			"uri":"textures/TVback_baseColor.jpg"
		},
		{
			"mimeType":"image/png",
			"name":"TVScreen_normal",
			"uri":"textures/TVScreen_normal.png"
		},
		{
			"mimeType":"image/png",
			"name":"TVScreen_metallicRoughness",
			"uri":"textures/TVScreen_metallicRoughness.png"
		},
		{
			"mimeType":"image/jpeg",
			"name":"TVScreen_baseColor",
			"uri":"textures/TVScreen_baseColor.jpg"
		}
	],
	"accessors":[
		{
			"bufferView":0,
			"componentType":5126,
			"count":755,
			"max":[
				9.331792831420898,
				5.849999904632568,
				0.7298150062561035
			],
			"min":[
				4.767033100128174,
				4.748816967010498,
				-0.4457800090312958
			],
			"type":"VEC3"
		},
		{
			"bufferView":1,
			"componentType":5126,
			"count":755,
			"type":"VEC3"
		},
		{
			"bufferView":2,
			"componentType":5126,
			"count":755,
			"type":"VEC2"
		},
		{
			"bufferView":3,
			"componentType":5123,
			"count":3312,
			"type":"SCALAR"
		},
		{
			"bufferView":4,
			"componentType":5126,
			"count":755,
			"max":[
				9.331792831420898,
				5.850001811981201,
				0.7298150062561035
			],
			"min":[
				4.767033100128174,
				4.748816967010498,
				-0.4457800090312958
			],
			"type":"VEC3"
		},
		{
			"bufferView":5,
			"componentType":5126,
			"count":755,
			"type":"VEC3"
		},
		{
			"bufferView":6,
			"componentType":5126,
			"count":755,
			"type":"VEC2"
		},
		{
			"bufferView":7,
			"componentType":5126,
			"count":2072,
			"max":[
				10.862251281738281,
				11.526970863342285,
				-70.93240356445312
			],
			"min":[
				5.011246204376221,
				-1.5820980072021484,
				-76.7830810546875
			],
			"type":"VEC3"
		},
		{
			"bufferView":8,
			"componentType":5126,
			"count":2072,
			"type":"VEC3"
		},
		{
			"bufferView":9,
			"componentType":5126,
			"count":2072,
			"type":"VEC2"
		},
		{
			"bufferView":10,
			"componentType":5123,
			"count":9912,
			"type":"SCALAR"
		},
		{
			"bufferView":11,
			"componentType":5126,
			"count":343,
			"max":[
				-2.163572072982788,
				-21.03217887878418,
				1.0668220520019531
			],
			"min":[
				-12.043302536010742,
				-22.288633346557617,
				0.5914379954338074
			],
			"type":"VEC3"
		},
		{
			"bufferView":12,
			"componentType":5126,
			"count":343,
			"type":"VEC3"
		},
		{
			"bufferView":13,
			"componentType":5126,
			"count":343,
			"type":"VEC2"
		},
		{
			"bufferView":14,
			"componentType":5123,
			"count":1764,
			"type":"SCALAR"
		},
		{
			"bufferView":15,
			"componentType":5126,
			"count":1523,
			"max":[
				23.400005340576172,
				18.399999618530273,
				0.953357994556427
			],
			"min":[
				-23.400005340576172,
				-26.836109161376953,
				-15.835039138793945
			],
			"type":"VEC3"
		},
		{
			"bufferView":16,
			"componentType":5126,
			"count":1523,
			"type":"VEC3"
		},
		{
			"bufferView":17,
			"componentType":5126,
			"count":1523,
			"type":"VEC2"
		},
		{
			"bufferView":18,
			"componentType":5123,
			"count":7770,
			"type":"SCALAR"
		},
		{
			"bufferView":19,
			"componentType":5126,
			"count":2839,
			"max":[
				22.921443939208984,
				15.379081726074219,
				1.9347230195999146
			],
			"min":[
				-23.18689727783203,
				7.0310211181640625,
				0.40254199504852295
			],
			"type":"VEC3"
		},
		{
			"bufferView":20,
			"componentType":5126,
			"count":2839,
			"type":"VEC3"
		},
		{
			"bufferView":21,
			"componentType":5126,
			"count":2839,
			"type":"VEC2"
		},
		{
			"bufferView":22,
			"componentType":5123,
			"count":5817,
			"type":"SCALAR"
		},
		{
			"bufferView":23,
			"componentType":5126,
			"count":2899,
			"max":[
				23.441631317138672,
				18.40001678466797,
				-15.834991455078125
			],
			"min":[
				-23.40531349182129,
				-26.836109161376953,
				-37.638267517089844
			],
			"type":"VEC3"
		},
		{
			"bufferView":24,
			"componentType":5126,
			"count":2899,
			"type":"VEC3"
		},
		{
			"bufferView":25,
			"componentType":5126,
			"count":2899,
			"type":"VEC2"
		},
		{
			"bufferView":26,
			"componentType":5123,
			"count":13572,
			"type":"SCALAR"
		},
		{
			"bufferView":27,
			"componentType":5126,
			"count":117,
			"max":[
				0.05614800006151199,
				0.04277300089597702,
				0.41982799768447876
			],
			"min":[
				-0.05614800006151199,
				-0.04277300089597702,
				0.41500699520111084
			],
			"type":"VEC3"
		},
		{
			"bufferView":28,
			"componentType":5126,
			"count":117,
			"type":"VEC3"
		},
		{
			"bufferView":29,
			"componentType":5126,
			"count":117,
			"type":"VEC2"
		},
		{
			"bufferView":30,
			"componentType":5123,
			"count":576,
			"type":"SCALAR"
		},
		{
			"bufferView":31,
			"componentType":5126,
			"count":305,
			"max":[
				1.4265589714050293,
				1.426558017730713,
				0.18627899885177612
			],
			"min":[
				-1.4265559911727905,
				-1.4265589714050293,
				-1.3022079467773438
			],
			"type":"VEC3"
		},
		{
			"bufferView":32,
			"componentType":5126,
			"count":305,
			"type":"VEC3"
		},
		{
			"bufferView":33,
			"componentType":5126,
			"count":305,
			"type":"VEC2"
		},
		{
			"bufferView":34,
			"componentType":5123,
			"count":1776,
			"type":"SCALAR"
		}
	],
	"bufferViews":[
		{
			"buffer":0,
			"byteLength":9060,
			"byteOffset":0,
			"target":34962
		},
		{
			"buffer":0,
			"byteLength":9060,
			"byteOffset":9060,
			"target":34962
		},
		{
			"buffer":0,
			"byteLength":6040,
			"byteOffset":18120,
			"target":34962
		},
		{
			"buffer":0,
			"byteLength":6624,
			"byteOffset":24160,
			"target":34963
		},
		{
			"buffer":0,
			"byteLength":9060,
			"byteOffset":30784,
			"target":34962
		},
		{
			"buffer":0,
			"byteLength":9060,
			"byteOffset":39844,
			"target":34962
		},
		{
			"buffer":0,
			"byteLength":6040,
			"byteOffset":48904,
			"target":34962
		},
		{
			"buffer":0,
			"byteLength":24864,
			"byteOffset":54944,
			"target":34962
		},
		{
			"buffer":0,
			"byteLength":24864,
			"byteOffset":79808,
			"target":34962
		},
		{
			"buffer":0,
			"byteLength":16576,
			"byteOffset":104672,
			"target":34962
		},
		{
			"buffer":0,
			"byteLength":19824,
			"byteOffset":121248,
			"target":34963
		},
		{
			"buffer":0,
			"byteLength":4116,
			"byteOffset":141072,
			"target":34962
		},
		{
			"buffer":0,
			"byteLength":4116,
			"byteOffset":145188,
			"target":34962
		},
		{
			"buffer":0,
			"byteLength":2744,
			"byteOffset":149304,
			"target":34962
		},
		{
			"buffer":0,
			"byteLength":3528,
			"byteOffset":152048,
			"target":34963
		},
		{
			"buffer":0,
			"byteLength":18276,
			"byteOffset":155576,
			"target":34962
		},
		{
			"buffer":0,
			"byteLength":18276,
			"byteOffset":173852,
			"target":34962
		},
		{
			"buffer":0,
			"byteLength":12184,
			"byteOffset":192128,
			"target":34962
		},
		{
			"buffer":0,
			"byteLength":15540,
			"byteOffset":204312,
			"target":34963
		},
		{
			"buffer":0,
			"byteLength":34068,
			"byteOffset":219852,
			"target":34962
		},
		{
			"buffer":0,
			"byteLength":34068,
			"byteOffset":253920,
			"target":34962
		},
		{
			"buffer":0,
			"byteLength":22712,
			"byteOffset":287988,
			"target":34962
		},
		{
			"buffer":0,
			"byteLength":11634,
			"byteOffset":310700,
			"target":34963
		},
		{
			"buffer":0,
			"byteLength":34788,
			"byteOffset":322336,
			"target":34962
		},
		{
			"buffer":0,
			"byteLength":34788,
			"byteOffset":357124,
			"target":34962
		},
		{
			"buffer":0,
			"byteLength":23192,
			"byteOffset":391912,
			"target":34962
		},
		{
			"buffer":0,
			"byteLength":27144,
			"byteOffset":415104,
			"target":34963
		},
		{
			"buffer":0,
			"byteLength":1404,
			"byteOffset":442248,
			"target":34962
		},
		{
			"buffer":0,
			"byteLength":1404,
			"byteOffset":443652,
			"target":34962
		},
		{
			"buffer":0,
			"byteLength":936,
			"byteOffset":445056,
			"target":34962
		},
		{
			"buffer":0,
			"byteLength":1152,
			"byteOffset":445992,
			"target":34963
		},
		{
			"buffer":0,
			"byteLength":3660,
			"byteOffset":447144,
			"target":34962
		},
		{
			"buffer":0,
			"byteLength":3660,
			"byteOffset":450804,
			"target":34962
		},
		{
			"buffer":0,
			"byteLength":2440,
			"byteOffset":454464,
			"target":34962
		},
		{
			"buffer":0,
			"byteLength":3552,
			"byteOffset":456904,
			"target":34963
		}
	],
	"samplers":[
		{
			"magFilter":9729,
			"minFilter":9987
		}
	],
	"buffers":[
		{
			"byteLength":460456,
			"uri":"scene.bin"
		}
	]
}
