{
	"asset":{
		"generator":"Khronos glTF Blender I/O v4.0.44",
		"version":"2.0"
	},
	"scene":0,
	"scenes":[
		{
			"name":"Scene",
			"nodes":[
				0,
				21
			]
		}
	],
	"nodes":[
		{
			"name":"Screen",
			"scale":[
				398.21588134765625,
				398.2158508300781,
				398.2158508300781
			],
			"translation":[
				0,
				0,
				-166.61721801757812
			]
		},
		{
			"mesh":0,
			"name":"Book_Book Cover_0"
		},
		{
			"mesh":1,
			"name":"Book_Book_Pages_0"
		},
		{
			"children":[
				1,
				2
			],
			"name":"Book",
			"rotation":[
				-0.70710688829422,
				0,
				0,
				0.7071066498756409
			],
			"scale":[
				500.00006103515625,
				500.0000305175781,
				500.0000305175781
			],
			"translation":[
				-150,
				263.7864990234375,
				-2.47955322265625e-05
			]
		},
		{
			"mesh":2,
			"name":"Book.001_Book Cover_0"
		},
		{
			"mesh":3,
			"name":"Book.001_Book_Pages_0"
		},
		{
			"children":[
				4,
				5
			],
			"name":"Book.001",
			"rotation":[
				-0.7035490274429321,
				0.0708436667919159,
				0.07084368914365768,
				0.7035489082336426
			],
			"scale":[
				499.9999694824219,
				500,
				500.0000305175781
			],
			"translation":[
				-150.00001525878906,
				278.78656005859375,
				0
			]
		},
		{
			"mesh":4,
			"name":"Computer_computer.logo_0"
		},
		{
			"mesh":5,
			"name":"Computer_computer.primary_0"
		},
		{
			"mesh":6,
			"name":"Computer_computer.screen_0"
		},
		{
			"mesh":7,
			"name":"Computer_computer.secondary_0"
		},
		{
			"children":[
				7,
				8,
				9,
				10
			],
			"name":"Computer",
			"rotation":[
				-0.7074059247970581,
				0.00019193645857740194,
				-0.0001920895156217739,
				0.7068074345588684
			],
			"scale":[
				500.00018310546875,
				500.0001220703125,
				500.0001220703125
			],
			"translation":[
				2.7418136596679688e-06,
				263.3642883300781,
				-1.0013580322265625e-05
			]
		},
		{
			"mesh":8,
			"name":"Dresser_Metal_0"
		},
		{
			"mesh":9,
			"name":"Dresser_Wood 1_0"
		},
		{
			"children":[
				12,
				13
			],
			"name":"Dresser",
			"rotation":[
				-0.70710688829422,
				0,
				0,
				0.7071066498756409
			],
			"scale":[
				500.00006103515625,
				500.0000305175781,
				500.0000305175781
			],
			"translation":[
				1.52587890625e-05,
				-1.6143954781000502e-05,
				0
			]
		},
		{
			"mesh":10,
			"name":"Tea Cup_Porcelain - White_0"
		},
		{
			"children":[
				15
			],
			"name":"Tea Cup",
			"rotation":[
				-0.70710688829422,
				0,
				0,
				0.7071066498756409
			],
			"scale":[
				499.9999694824219,
				500.0000915527344,
				500.0000305175781
			],
			"translation":[
				150.00001525878906,
				263.77301025390625,
				-2.1696090698242188e-05
			]
		},
		{
			"mesh":11,
			"name":"Wooden_Chair_Wood 1_0"
		},
		{
			"children":[
				17
			],
			"name":"Wooden_Chair",
			"rotation":[
				0,
				-0.7071068286895752,
				-0.7071068286895752,
				5.0193481371252346e-08
			],
			"scale":[
				500.0000915527344,
				500.0000305175781,
				500.0001220703125
			],
			"translation":[
				3.0517578125e-05,
				5.217827492742799e-06,
				300.0000305175781
			]
		},
		{
			"children":[
				3,
				6,
				11,
				14,
				16,
				18
			],
			"name":"RootNode",
			"translation":[
				1.52587890625e-05,
				-1.6143954781000502e-05,
				0
			]
		},
		{
			"children":[
				19
			],
			"name":"045407757d9b41d2aaf0d99f6ae49b05.fbx",
			"rotation":[
				0.70710688829422,
				0,
				0,
				0.7071066498756409
			],
			"scale":[
				0.009999999776482582,
				0.009999999776482582,
				0.010000000707805157
			]
		},
		{
			"children":[
				20
			],
			"name":"Sketchfab_model",
			"rotation":[
				-0.6240204572677612,
				0.12115360051393509,
				0.14712850749492645,
				0.7578083872795105
			],
			"scale":[
				0.40901416540145874,
				0.40901416540145874,
				0.40901416540145874
			],
			"translation":[
				-1.2145763635635376,
				-1.0392866134643555,
				1.7555710077285767
			]
		}
	],
	"animations":[
		{
			"channels":[
				{
					"sampler":0,
					"target":{
						"node":21,
						"path":"translation"
					}
				},
				{
					"sampler":1,
					"target":{
						"node":21,
						"path":"rotation"
					}
				},
				{
					"sampler":2,
					"target":{
						"node":21,
						"path":"scale"
					}
				}
			],
			"name":"Sketchfab_modelAction",
			"samplers":[
				{
					"input":46,
					"interpolation":"LINEAR",
					"output":47
				},
				{
					"input":46,
					"interpolation":"LINEAR",
					"output":48
				},
				{
					"input":46,
					"interpolation":"LINEAR",
					"output":49
				}
			]
		}
	],
	"materials":[
		{
			"doubleSided":true,
			"name":"Book_Cover",
			"pbrMetallicRoughness":{
				"baseColorFactor":[
					0.5978448987007141,
					0.00525466725230217,
					0.00525466725230217,
					1
				],
				"metallicFactor":0,
				"roughnessFactor":0.8868629336357117
			}
		},
		{
			"doubleSided":true,
			"name":"Book_Pages",
			"pbrMetallicRoughness":{
				"baseColorFactor":[
					0.5474179983139038,
					0.46900299191474915,
					0.3930639922618866,
					1
				],
				"metallicFactor":0,
				"roughnessFactor":0.8926259875297546
			}
		},
		{
			"doubleSided":true,
			"name":"computer.logo",
			"pbrMetallicRoughness":{
				"baseColorFactor":[
					0.3296869993209839,
					0.3296869993209839,
					0.3296869993209839,
					1
				],
				"metallicFactor":0,
				"roughnessFactor":0.9619120955467224
			}
		},
		{
			"doubleSided":true,
			"name":"computer.primary",
			"pbrMetallicRoughness":{
				"baseColorFactor":[
					0.12949900329113007,
					0.11947199702262878,
					0.11064200103282928,
					1
				],
				"metallicFactor":0,
				"roughnessFactor":0.9729511141777039
			}
		},
		{
			"doubleSided":true,
			"name":"computer.screen",
			"pbrMetallicRoughness":{
				"baseColorFactor":[
					0,
					0,
					0,
					1
				],
				"metallicFactor":0
			}
		},
		{
			"doubleSided":true,
			"name":"computer.secondary",
			"pbrMetallicRoughness":{
				"baseColorFactor":[
					0.057768698781728745,
					0.057768698781728745,
					0.057768698781728745,
					1
				],
				"metallicFactor":0,
				"roughnessFactor":0.9852718114852905
			}
		},
		{
			"doubleSided":true,
			"name":"Metal",
			"pbrMetallicRoughness":{
				"baseColorFactor":[
					0.38291698694229126,
					0.281453013420105,
					0.2135079950094223,
					1
				],
				"metallicFactor":0,
				"roughnessFactor":0.9269761443138123
			}
		},
		{
			"doubleSided":true,
			"name":"Wood_1",
			"pbrMetallicRoughness":{
				"baseColorFactor":[
					0.26676100492477417,
					0.13242100179195404,
					0.07590179890394211,
					1
				],
				"metallicFactor":0,
				"roughnessFactor":0.9615672826766968
			}
		},
		{
			"doubleSided":true,
			"name":"Porcelain_-_White",
			"pbrMetallicRoughness":{
				"baseColorFactor":[
					0.800000011920929,
					0.800000011920929,
					0.800000011920929,
					1
				],
				"metallicFactor":0,
				"roughnessFactor":0.8040408492088318
			}
		}
	],
	"meshes":[
		{
			"name":"Book_Book Cover_0",
			"primitives":[
				{
					"attributes":{
						"POSITION":0,
						"NORMAL":1,
						"TEXCOORD_0":2
					},
					"indices":3,
					"material":0
				}
			]
		},
		{
			"name":"Book_Book_Pages_0",
			"primitives":[
				{
					"attributes":{
						"POSITION":4,
						"NORMAL":5,
						"TEXCOORD_0":6
					},
					"indices":7,
					"material":1
				}
			]
		},
		{
			"name":"Book.001_Book Cover_0",
			"primitives":[
				{
					"attributes":{
						"POSITION":8,
						"NORMAL":9,
						"TEXCOORD_0":10
					},
					"indices":3,
					"material":0
				}
			]
		},
		{
			"name":"Book.001_Book_Pages_0",
			"primitives":[
				{
					"attributes":{
						"POSITION":11,
						"NORMAL":12,
						"TEXCOORD_0":13
					},
					"indices":7,
					"material":1
				}
			]
		},
		{
			"name":"Computer_computer.logo_0",
			"primitives":[
				{
					"attributes":{
						"POSITION":14,
						"NORMAL":15,
						"TEXCOORD_0":16
					},
					"indices":17,
					"material":2
				}
			]
		},
		{
			"name":"Computer_computer.primary_0",
			"primitives":[
				{
					"attributes":{
						"POSITION":18,
						"NORMAL":19,
						"TEXCOORD_0":20
					},
					"indices":21,
					"material":3
				}
			]
		},
		{
			"name":"Computer_computer.screen_0",
			"primitives":[
				{
					"attributes":{
						"POSITION":22,
						"NORMAL":23,
						"TEXCOORD_0":24
					},
					"indices":25,
					"material":4
				}
			]
		},
		{
			"name":"Computer_computer.secondary_0",
			"primitives":[
				{
					"attributes":{
						"POSITION":26,
						"NORMAL":27,
						"TEXCOORD_0":28
					},
					"indices":29,
					"material":5
				}
			]
		},
		{
			"name":"Dresser_Metal_0",
			"primitives":[
				{
					"attributes":{
						"POSITION":30,
						"NORMAL":31,
						"TEXCOORD_0":32
					},
					"indices":33,
					"material":6
				}
			]
		},
		{
			"name":"Dresser_Wood 1_0",
			"primitives":[
				{
					"attributes":{
						"POSITION":34,
						"NORMAL":35,
						"TEXCOORD_0":36
					},
					"indices":37,
					"material":7
				}
			]
		},
		{
			"name":"Tea Cup_Porcelain - White_0",
			"primitives":[
				{
					"attributes":{
						"POSITION":38,
						"NORMAL":39,
						"TEXCOORD_0":40
					},
					"indices":41,
					"material":8
				}
			]
		},
		{
			"name":"Wooden_Chair_Wood 1_0",
			"primitives":[
				{
					"attributes":{
						"POSITION":42,
						"NORMAL":43,
						"TEXCOORD_0":44
					},
					"indices":45,
					"material":7
				}
			]
		}
	],
	"accessors":[
		{
			"bufferView":0,
			"componentType":5126,
			"count":312,
			"max":[
				0.055341463536024094,
				0.07946914434432983,
				0.03129638358950615
			],
			"min":[
				-0.05789769068360329,
				-0.07946914434432983,
				2.0658463029121776e-07
			],
			"type":"VEC3"
		},
		{
			"bufferView":1,
			"componentType":5126,
			"count":312,
			"type":"VEC3"
		},
		{
			"bufferView":2,
			"componentType":5126,
			"count":312,
			"type":"VEC2"
		},
		{
			"bufferView":3,
			"componentType":5123,
			"count":1524,
			"type":"SCALAR"
		},
		{
			"bufferView":4,
			"componentType":5126,
			"count":326,
			"max":[
				0.05157516896724701,
				0.07556572556495667,
				0.030906101688742638
			],
			"min":[
				-0.056160636246204376,
				-0.07556572556495667,
				0.0003904877230525017
			],
			"type":"VEC3"
		},
		{
			"bufferView":5,
			"componentType":5126,
			"count":326,
			"type":"VEC3"
		},
		{
			"bufferView":6,
			"componentType":5126,
			"count":326,
			"type":"VEC2"
		},
		{
			"bufferView":7,
			"componentType":5123,
			"count":1500,
			"type":"SCALAR"
		},
		{
			"bufferView":8,
			"componentType":5126,
			"count":312,
			"max":[
				0.055341463536024094,
				0.07946914434432983,
				0.03129638358950615
			],
			"min":[
				-0.05789769068360329,
				-0.07946914434432983,
				2.0658463029121776e-07
			],
			"type":"VEC3"
		},
		{
			"bufferView":9,
			"componentType":5126,
			"count":312,
			"type":"VEC3"
		},
		{
			"bufferView":10,
			"componentType":5126,
			"count":312,
			"type":"VEC2"
		},
		{
			"bufferView":11,
			"componentType":5126,
			"count":326,
			"max":[
				0.05157516896724701,
				0.07556572556495667,
				0.030906101688742638
			],
			"min":[
				-0.056160636246204376,
				-0.07556572556495667,
				0.0003904877230525017
			],
			"type":"VEC3"
		},
		{
			"bufferView":12,
			"componentType":5126,
			"count":326,
			"type":"VEC3"
		},
		{
			"bufferView":13,
			"componentType":5126,
			"count":326,
			"type":"VEC2"
		},
		{
			"bufferView":14,
			"componentType":5126,
			"count":16578,
			"max":[
				0.042822469025850296,
				0.14655500650405884,
				0.14760249853134155
			],
			"min":[
				-0.042933277785778046,
				0.13015954196453094,
				0.0887061357498169
			],
			"type":"VEC3"
		},
		{
			"bufferView":15,
			"componentType":5126,
			"count":16578,
			"type":"VEC3"
		},
		{
			"bufferView":16,
			"componentType":5126,
			"count":16578,
			"type":"VEC2"
		},
		{
			"bufferView":17,
			"componentType":5123,
			"count":16578,
			"type":"SCALAR"
		},
		{
			"bufferView":18,
			"componentType":5126,
			"count":552,
			"max":[
				0.13920776546001434,
				0.15467970073223114,
				0.19667673110961914
			],
			"min":[
				-0.1392083317041397,
				-0.09154364466667175,
				0
			],
			"type":"VEC3"
		},
		{
			"bufferView":19,
			"componentType":5126,
			"count":552,
			"type":"VEC3"
		},
		{
			"bufferView":20,
			"componentType":5126,
			"count":552,
			"type":"VEC2"
		},
		{
			"bufferView":21,
			"componentType":5123,
			"count":1890,
			"type":"SCALAR"
		},
		{
			"bufferView":22,
			"componentType":5126,
			"count":28,
			"max":[
				0.12137534469366074,
				0.13856717944145203,
				0.17851020395755768
			],
			"min":[
				-0.1213759109377861,
				0.10129725933074951,
				0.03248482570052147
			],
			"type":"VEC3"
		},
		{
			"bufferView":23,
			"componentType":5126,
			"count":28,
			"type":"VEC3"
		},
		{
			"bufferView":24,
			"componentType":5126,
			"count":28,
			"type":"VEC2"
		},
		{
			"bufferView":25,
			"componentType":5123,
			"count":66,
			"type":"SCALAR"
		},
		{
			"bufferView":26,
			"componentType":5126,
			"count":1791,
			"max":[
				0.12137534469366074,
				0.07791177183389664,
				0.01749768666923046
			],
			"min":[
				-0.1213759109377861,
				-0.07279475033283234,
				0.01198861375451088
			],
			"type":"VEC3"
		},
		{
			"bufferView":27,
			"componentType":5126,
			"count":1791,
			"type":"VEC3"
		},
		{
			"bufferView":28,
			"componentType":5126,
			"count":1791,
			"type":"VEC2"
		},
		{
			"bufferView":29,
			"componentType":5123,
			"count":3027,
			"type":"SCALAR"
		},
		{
			"bufferView":30,
			"componentType":5126,
			"count":7311,
			"max":[
				0.1856924593448639,
				-0.27573269605636597,
				0.4511268734931946
			],
			"min":[
				-0.2001200020313263,
				-0.2990531325340271,
				0.10911150276660919
			],
			"type":"VEC3"
		},
		{
			"bufferView":31,
			"componentType":5126,
			"count":7311,
			"type":"VEC3"
		},
		{
			"bufferView":32,
			"componentType":5126,
			"count":7311,
			"type":"VEC2"
		},
		{
			"bufferView":33,
			"componentType":5123,
			"count":22632,
			"type":"SCALAR"
		},
		{
			"bufferView":34,
			"componentType":5126,
			"count":12243,
			"max":[
				0.41777878999710083,
				0.31952062249183655,
				0.527423620223999
			],
			"min":[
				-0.4190756678581238,
				-0.3246876299381256,
				-0.0002698026946745813
			],
			"type":"VEC3"
		},
		{
			"bufferView":35,
			"componentType":5126,
			"count":12243,
			"type":"VEC3"
		},
		{
			"bufferView":36,
			"componentType":5126,
			"count":12243,
			"type":"VEC2"
		},
		{
			"bufferView":37,
			"componentType":5123,
			"count":39288,
			"type":"SCALAR"
		},
		{
			"bufferView":38,
			"componentType":5126,
			"count":24464,
			"max":[
				0.056458089500665665,
				0.0530732125043869,
				0.05216692388057709
			],
			"min":[
				-0.053073037415742874,
				-0.053072862327098846,
				1.5507989559182533e-08
			],
			"type":"VEC3"
		},
		{
			"bufferView":39,
			"componentType":5126,
			"count":24464,
			"type":"VEC3"
		},
		{
			"bufferView":40,
			"componentType":5126,
			"count":24464,
			"type":"VEC2"
		},
		{
			"bufferView":41,
			"componentType":5123,
			"count":108864,
			"type":"SCALAR"
		},
		{
			"bufferView":42,
			"componentType":5126,
			"count":2117,
			"max":[
				0.148619145154953,
				0.19215118885040283,
				0.5024768710136414
			],
			"min":[
				-0.1471022218465805,
				-0.13802947103977203,
				0.00015130055544432253
			],
			"type":"VEC3"
		},
		{
			"bufferView":43,
			"componentType":5126,
			"count":2117,
			"type":"VEC3"
		},
		{
			"bufferView":44,
			"componentType":5126,
			"count":2117,
			"type":"VEC2"
		},
		{
			"bufferView":45,
			"componentType":5123,
			"count":9048,
			"type":"SCALAR"
		},
		{
			"bufferView":46,
			"componentType":5126,
			"count":1,
			"max":[
				0.041666666666666664
			],
			"min":[
				0.041666666666666664
			],
			"type":"SCALAR"
		},
		{
			"bufferView":47,
			"componentType":5126,
			"count":1,
			"type":"VEC3"
		},
		{
			"bufferView":48,
			"componentType":5126,
			"count":1,
			"type":"VEC4"
		},
		{
			"bufferView":49,
			"componentType":5126,
			"count":1,
			"type":"VEC3"
		}
	],
	"bufferViews":[
		{
			"buffer":0,
			"byteLength":3744,
			"byteOffset":0,
			"target":34962
		},
		{
			"buffer":0,
			"byteLength":3744,
			"byteOffset":3744,
			"target":34962
		},
		{
			"buffer":0,
			"byteLength":2496,
			"byteOffset":7488,
			"target":34962
		},
		{
			"buffer":0,
			"byteLength":3048,
			"byteOffset":9984,
			"target":34963
		},
		{
			"buffer":0,
			"byteLength":3912,
			"byteOffset":13032,
			"target":34962
		},
		{
			"buffer":0,
			"byteLength":3912,
			"byteOffset":16944,
			"target":34962
		},
		{
			"buffer":0,
			"byteLength":2608,
			"byteOffset":20856,
			"target":34962
		},
		{
			"buffer":0,
			"byteLength":3000,
			"byteOffset":23464,
			"target":34963
		},
		{
			"buffer":0,
			"byteLength":3744,
			"byteOffset":26464,
			"target":34962
		},
		{
			"buffer":0,
			"byteLength":3744,
			"byteOffset":30208,
			"target":34962
		},
		{
			"buffer":0,
			"byteLength":2496,
			"byteOffset":33952,
			"target":34962
		},
		{
			"buffer":0,
			"byteLength":3912,
			"byteOffset":36448,
			"target":34962
		},
		{
			"buffer":0,
			"byteLength":3912,
			"byteOffset":40360,
			"target":34962
		},
		{
			"buffer":0,
			"byteLength":2608,
			"byteOffset":44272,
			"target":34962
		},
		{
			"buffer":0,
			"byteLength":198936,
			"byteOffset":46880,
			"target":34962
		},
		{
			"buffer":0,
			"byteLength":198936,
			"byteOffset":245816,
			"target":34962
		},
		{
			"buffer":0,
			"byteLength":132624,
			"byteOffset":444752,
			"target":34962
		},
		{
			"buffer":0,
			"byteLength":33156,
			"byteOffset":577376,
			"target":34963
		},
		{
			"buffer":0,
			"byteLength":6624,
			"byteOffset":610532,
			"target":34962
		},
		{
			"buffer":0,
			"byteLength":6624,
			"byteOffset":617156,
			"target":34962
		},
		{
			"buffer":0,
			"byteLength":4416,
			"byteOffset":623780,
			"target":34962
		},
		{
			"buffer":0,
			"byteLength":3780,
			"byteOffset":628196,
			"target":34963
		},
		{
			"buffer":0,
			"byteLength":336,
			"byteOffset":631976,
			"target":34962
		},
		{
			"buffer":0,
			"byteLength":336,
			"byteOffset":632312,
			"target":34962
		},
		{
			"buffer":0,
			"byteLength":224,
			"byteOffset":632648,
			"target":34962
		},
		{
			"buffer":0,
			"byteLength":132,
			"byteOffset":632872,
			"target":34963
		},
		{
			"buffer":0,
			"byteLength":21492,
			"byteOffset":633004,
			"target":34962
		},
		{
			"buffer":0,
			"byteLength":21492,
			"byteOffset":654496,
			"target":34962
		},
		{
			"buffer":0,
			"byteLength":14328,
			"byteOffset":675988,
			"target":34962
		},
		{
			"buffer":0,
			"byteLength":6054,
			"byteOffset":690316,
			"target":34963
		},
		{
			"buffer":0,
			"byteLength":87732,
			"byteOffset":696372,
			"target":34962
		},
		{
			"buffer":0,
			"byteLength":87732,
			"byteOffset":784104,
			"target":34962
		},
		{
			"buffer":0,
			"byteLength":58488,
			"byteOffset":871836,
			"target":34962
		},
		{
			"buffer":0,
			"byteLength":45264,
			"byteOffset":930324,
			"target":34963
		},
		{
			"buffer":0,
			"byteLength":146916,
			"byteOffset":975588,
			"target":34962
		},
		{
			"buffer":0,
			"byteLength":146916,
			"byteOffset":1122504,
			"target":34962
		},
		{
			"buffer":0,
			"byteLength":97944,
			"byteOffset":1269420,
			"target":34962
		},
		{
			"buffer":0,
			"byteLength":78576,
			"byteOffset":1367364,
			"target":34963
		},
		{
			"buffer":0,
			"byteLength":293568,
			"byteOffset":1445940,
			"target":34962
		},
		{
			"buffer":0,
			"byteLength":293568,
			"byteOffset":1739508,
			"target":34962
		},
		{
			"buffer":0,
			"byteLength":195712,
			"byteOffset":2033076,
			"target":34962
		},
		{
			"buffer":0,
			"byteLength":217728,
			"byteOffset":2228788,
			"target":34963
		},
		{
			"buffer":0,
			"byteLength":25404,
			"byteOffset":2446516,
			"target":34962
		},
		{
			"buffer":0,
			"byteLength":25404,
			"byteOffset":2471920,
			"target":34962
		},
		{
			"buffer":0,
			"byteLength":16936,
			"byteOffset":2497324,
			"target":34962
		},
		{
			"buffer":0,
			"byteLength":18096,
			"byteOffset":2514260,
			"target":34963
		},
		{
			"buffer":0,
			"byteLength":4,
			"byteOffset":2532356
		},
		{
			"buffer":0,
			"byteLength":12,
			"byteOffset":2532360
		},
		{
			"buffer":0,
			"byteLength":16,
			"byteOffset":2532372
		},
		{
			"buffer":0,
			"byteLength":12,
			"byteOffset":2532388
		}
	],
	"buffers":[
		{
			"byteLength":2532400,
			"uri":"scene_2.bin"
		}
	]
}
